<svg width="19" height="19" viewBox="0 0 19 19" fill="none" xmlns="http://www.w3.org/2000/svg">
<path d="M7.32287 17.4166L7.0062 14.8833C6.83467 14.8173 6.67304 14.7381 6.52131 14.6458C6.36957 14.5534 6.22113 14.4544 6.07599 14.3489L3.72078 15.3385L1.5437 11.578L3.58224 10.0343C3.56905 9.94193 3.56245 9.85287 3.56245 9.76711V9.23273C3.56245 9.14697 3.56905 9.0579 3.58224 8.96554L1.5437 7.42179L3.72078 3.66138L6.07599 4.65096C6.22113 4.5454 6.37287 4.44645 6.5312 4.35409C6.68953 4.26172 6.84787 4.18256 7.0062 4.11659L7.32287 1.58325H11.677L11.9937 4.11659C12.1652 4.18256 12.3269 4.26172 12.4786 4.35409C12.6303 4.44645 12.7788 4.5454 12.9239 4.65096L15.2791 3.66138L17.4562 7.42179L15.4177 8.96554C15.4309 9.0579 15.4375 9.14697 15.4375 9.23273V9.76711C15.4375 9.85287 15.4243 9.94193 15.3979 10.0343L17.4364 11.578L15.2593 15.3385L12.9239 14.3489C12.7788 14.4544 12.627 14.5534 12.4687 14.6458C12.3104 14.7381 12.152 14.8173 11.9937 14.8833L11.677 17.4166H7.32287ZM9.53953 12.2708C10.3048 12.2708 10.9579 12.0003 11.4989 11.4593C12.0399 10.9183 12.3104 10.2652 12.3104 9.49992C12.3104 8.73464 12.0399 8.08152 11.4989 7.54054C10.9579 6.99957 10.3048 6.72908 9.53953 6.72908C8.76106 6.72908 8.10464 6.99957 7.57026 7.54054C7.03589 8.08152 6.7687 8.73464 6.7687 9.49992C6.7687 10.2652 7.03589 10.9183 7.57026 11.4593C8.10464 12.0003 8.76106 12.2708 9.53953 12.2708Z" fill="#1D1B20"/>
</svg>
