<svg width="12" height="7" viewBox="0 0 12 7" fill="none" xmlns="http://www.w3.org/2000/svg">
<path d="M0.0323464 0.585805C0.0310096 0.712316 0.0844792 0.835686 0.184183 0.936232L4.89913 5.79885C4.96937 5.87094 5.06014 5.92956 5.16434 5.97017C5.26854 6.01077 5.38338 6.03225 5.49992 6.03294C5.61645 6.03364 5.73154 6.01354 5.83622 5.97418C5.9409 5.93483 6.0323 5.87729 6.1034 5.80605L10.8762 1.00013C10.9771 0.900783 11.032 0.778061 11.0321 0.651543C11.0329 0.574728 11.0141 0.498505 10.9767 0.427239C10.9393 0.355972 10.8842 0.291067 10.8144 0.236242C10.7446 0.181418 10.6615 0.137761 10.57 0.107759C10.4784 0.0777568 10.3801 0.0620001 10.2808 0.0614068L0.790683 0.00469146C0.691353 0.00409744 0.592908 0.0186786 0.500994 0.0475841C0.40908 0.0764896 0.325511 0.11915 0.255063 0.173137C0.184615 0.227123 0.128674 0.291365 0.09046 0.36218C0.0522467 0.432995 0.0324841 0.508987 0.0323464 0.585805Z" fill="black" fill-opacity="0.588235"/>
</svg>
